<?xml version="1.0" encoding="UTF-8" standalone="no"?>
<!DOCTYPE svg PUBLIC "-//W3C//DTD SVG 1.1//EN" "http://www.w3.org/Graphics/SVG/1.1/DTD/svg11.dtd">
<svg width="100%" height="100%" viewBox="0 0 4955 3913" version="1.1" xmlns="http://www.w3.org/2000/svg" xmlns:xlink="http://www.w3.org/1999/xlink" xml:space="preserve" xmlns:affinity="https://www.affinity.studio/" style="fill-rule:evenodd;clip-rule:evenodd;stroke-linejoin:round;stroke-miterlimit:2;">
    <g transform="matrix(1,0,0,1,-39439,-10930)">
        <g id="Ether-Minus-8" affinity:id="Ether Minus 8" transform="matrix(4.398482,0,0,4.166667,39439.569437,10930.207175)">
            <rect x="0" y="0" width="1126.31" height="939.043" style="fill:none;"/>
            <clipPath id="_clip1">
                <rect x="0" y="0" width="1126.31" height="939.043"/>
            </clipPath>
            <g clip-path="url(#_clip1)">
                <g id="_--8-Ether" affinity:id="- 8 Ether" transform="matrix(0.947296,0,0,1,29.680281,0)">
                    <g id="Ether-Icon" affinity:id="Ether Icon" transform="matrix(1,0,0,1,936.9351,903.7052)">
                        <path d="M0,-861.776C-1.942,-868.034 -5.481,-873.707 -9.836,-878.56C-29.439,-900.576 -61.103,-905.357 -88.638,-903.256C-99.188,-902.499 -109.566,-900.413 -119.751,-897.674C-145.08,-891.157 -168.957,-879.692 -190.886,-865.684C-192.176,-864.855 -191.251,-862.831 -189.778,-863.282C-181.238,-865.881 -172.779,-868.538 -164.286,-870.825C-155.812,-873.155 -147.329,-875.126 -138.837,-876.68C-110.832,-881.375 -80.357,-884.636 -53.507,-873.731C-44.406,-869.904 -35.971,-864.198 -31.252,-855.566C-26.691,-845.481 -35.414,-835.981 -42.929,-830.002C-55.627,-819.903 -72.516,-813.088 -88.092,-807.588C-170.285,-779.942 -270.504,-765.638 -326.309,-691.007C-342.925,-668.439 -355.604,-638.794 -352.789,-610.209C-351.273,-594.768 -343.572,-580.295 -330.217,-572.042C-317.941,-564.374 -303.204,-562.149 -288.967,-562.14C-262.352,-562.528 -236.222,-569.524 -211.099,-577.312L-203.158,-590.034C-206.265,-588.855 -209.377,-587.709 -212.499,-586.596C-224.871,-582.199 -237.454,-578.353 -250.287,-575.591C-258.775,-573.802 -267.363,-572.474 -276.005,-571.898C-288.525,-571.049 -301.516,-571.63 -313.284,-576.118C-355.019,-592.331 -334.595,-643.287 -313.654,-668.938C-288.281,-700.967 -251.644,-721.721 -213.463,-735.244C-172.438,-750.096 -128.421,-759.121 -86.845,-772.5C-64.024,-779.923 -40.934,-788.804 -21.896,-804.188C-15.374,-809.587 -9.37,-815.898 -4.987,-823.269C1.774,-834.552 4.201,-848.919 0,-861.776M173.318,-519.536C149.988,-557.13 109.651,-568.188 90.49,-573.443C49.801,-584.596 14.423,-576.991 -3.798,-571.311C-14.033,-568.121 -22.797,-564.305 -29.949,-560.667L-26.194,-554.657C-18.617,-559.078 -3.888,-563.93 23.371,-562.049C70.49,-558.798 112.701,-536.358 133.888,-500.979C155.08,-465.607 93.081,-439.618 93.081,-439.618C93.081,-439.618 122.768,-411.101 103.484,-370.216C95.599,-353.5 67.06,-325.346 39.073,-302.593C21.077,-292.402 -4.665,-283.98 -15.399,-280.689L-24.985,-254.925C-17.044,-259.122 -8.975,-263.504 -0.838,-268.641C12.671,-277.175 25.441,-285.72 37.479,-294.171C38.984,-294.702 41.211,-295.486 44.037,-296.549C72.84,-307.36 153.648,-337.854 179.904,-408.051C183.659,-418.09 202.563,-472.406 173.318,-519.536M2.777,-733.094C-26.104,-769.865 -103.889,-753.496 -125.719,-747.743C-220.315,-722.818 -276.635,-648.99 -305.236,-609.857C-306.971,-607.484 -308.695,-605.089 -310.407,-602.677C-316.994,-593.404 -323.424,-583.84 -329.635,-574.053L-329.635,-574.047C-389.251,-480.139 -429.123,-365.42 -396.341,-289.095C-349.244,-179.462 -256.394,-293.745 -248.341,-312.895C-248.291,-313.018 -248.229,-313.158 -248.168,-313.309L-250.384,-319.258C-250.457,-319.174 -250.524,-319.09 -250.596,-319.006C-250.596,-319.006 -337.112,-192.467 -372.697,-292.727C-398.104,-364.312 -347.689,-482.624 -309.417,-550.342C-306.54,-555.429 -303.737,-560.231 -301.034,-564.702C-289.332,-584.092 -279.612,-597.349 -274.911,-601.116C-267.541,-607.025 -202.302,-691.078 -125.804,-712.729C-41.499,-736.591 -2.209,-694.374 -30.184,-645.638C-35.438,-636.483 -42.529,-623.959 -45.724,-618.301C-46.138,-617.568 -45.276,-616.779 -44.582,-617.255C-42.288,-618.038 3.466,-634.496 12.263,-679.45C13.152,-683.982 18.777,-712.724 2.777,-733.094M-200.517,-17.215C-220.495,-48.62 -214.966,-97.994 -214.966,-97.994C-219.437,-92.952 -225.985,-84.122 -229.499,-71.553C-234.301,-48.161 -231.212,-43.83 -230.893,-37.467C-296.697,-77.188 -198.738,-155.852 -191.675,-161.409C-191.412,-161.611 -191.278,-161.717 -191.278,-161.717L-202.498,-192.008C-202.498,-192.008 -202.655,-191.913 -202.951,-191.734C-211.586,-186.435 -340.128,-105.56 -285.085,-16.034C-248.436,43.581 -144.612,34.896 -144.612,34.896C-144.612,34.896 -180.533,14.185 -200.517,-17.215M-28.294,-553.347L-32.041,-559.362L-118.203,-697.37L-118.203,-516.761L-55.043,-435.21L38.319,-446.648L-28.294,-553.347ZM-52.971,-422.341L-106.518,-42.783L-27.308,-255.785L-17.718,-281.548L38.763,-433.336L-52.971,-422.341ZM-201.062,-588.723L-209,-576.003L-211.318,-572.329L-217.604,-562.221L-289.764,-446.648L-196.403,-435.21L-133.241,-516.761L-133.241,-697.37L-201.062,-588.723ZM-202.498,-192.008C-202.498,-192.008 -202.655,-191.913 -202.951,-191.734L-191.675,-161.409C-191.412,-161.611 -191.278,-161.717 -191.278,-161.717L-202.498,-192.008ZM-202.498,-192.008C-202.498,-192.008 -202.655,-191.913 -202.951,-191.734L-191.675,-161.409C-191.412,-161.611 -191.278,-161.717 -191.278,-161.717L-202.498,-192.008ZM-144.927,-42.783L-198.473,-422.341L-290.183,-433.336L-248.075,-320.129L-245.857,-314.163L-201.679,-195.385L-201.234,-195.656L-200.199,-192.87L-188.957,-162.572L-188.341,-160.895L-188.736,-160.575L-144.927,-42.783ZM-65.297,-426.975L-125.723,-7.603L-186.122,-426.975L-125.723,-505.298L-65.297,-426.975Z" style="fill:rgb(222,186,135);fill-rule:nonzero;"/>
                    </g>
                    <g id="Inline-Frame" affinity:id="Inline Frame" transform="matrix(1,0,0,1,107.9718,268.284)">
                        <path d="M0,499.368L0,423.377C13.936,459.297 42.561,487.922 78.48,501.856L2.49,501.856C1.117,501.856 0,500.741 0,499.368M557.401,501.856L99.751,501.856C50.095,490.921 10.932,451.756 0,402.099L0,374.164C0,370.754 -2.764,367.989 -6.174,367.989C-9.584,367.989 -12.348,370.754 -12.348,374.164L-12.348,499.368C-12.348,507.549 -5.692,514.206 2.49,514.206L557.401,514.206C560.811,514.206 563.575,511.441 563.575,508.032C563.575,504.621 560.811,501.856 557.401,501.856M2.49,-2.49L78.48,-2.49C42.561,11.446 13.936,40.071 0,75.991L0,0C0,-1.373 1.117,-2.49 2.49,-2.49M-6.174,131.379C-2.764,131.379 0,128.614 0,125.205L0,97.269C10.932,47.612 50.095,8.446 99.751,-2.49L487.083,-2.49C490.493,-2.49 493.257,-5.254 493.257,-8.664C493.257,-12.073 490.493,-14.838 487.083,-14.838L2.49,-14.838C-5.692,-14.838 -12.348,-8.182 -12.348,0L-12.348,125.205C-12.348,128.614 -9.584,131.379 -6.174,131.379" style="fill:rgb(222,186,135);fill-rule:nonzero;"/>
                    </g>
                    <g id="_--Modifier" affinity:id="- Modifier">
                        <g transform="matrix(1,0,0,1,158.4851,528.3295)">
                            <path d="M0,-20.726L-46.323,-20.726L-46.323,-20.729L-67.052,-20.729L-67.052,-20.726L-113.375,-20.726C-119.096,-20.726 -123.74,-16.086 -123.74,-10.362C-123.74,-4.637 -119.096,0.003 -113.375,0.003L0,0.003C5.72,0.003 10.364,-4.637 10.364,-10.362C10.364,-16.086 5.72,-20.726 0,-20.726" style="fill:rgb(222,186,135);fill-rule:nonzero;"/>
                        </g>
                        <g transform="matrix(1,0,0,1,101.7976,609.0961)">
                            <path d="M0,-182.257C-50.247,-182.257 -91.129,-141.377 -91.129,-91.128C-91.129,-40.88 -50.247,0.001 0,0.001C50.247,0.001 91.129,-40.88 91.129,-91.128C91.129,-141.377 50.247,-182.257 0,-182.257M0,10.67C-56.132,10.67 -101.798,-34.996 -101.798,-91.128C-101.798,-147.26 -56.132,-192.927 0,-192.927C56.132,-192.927 101.798,-147.26 101.798,-91.128C101.798,-34.996 56.132,10.67 0,10.67" style="fill:rgb(222,186,135);fill-rule:nonzero;"/>
                        </g>
                    </g>
                    <g id="_8" affinity:id="8" transform="matrix(1,0,0,1,287.2903,599.4146)">
                        <path d="M0,-163.302C0,-178.38 3.48,-191.582 10.441,-202.894C17.403,-214.206 27.192,-223.125 39.81,-229.651C52.427,-236.177 67.287,-239.583 84.404,-239.875C100.353,-240.161 114.642,-237.333 127.259,-231.391C139.876,-225.443 149.883,-216.959 157.279,-205.939C164.675,-194.913 168.373,-181.718 168.373,-166.348C168.373,-153.295 165.546,-141.616 159.89,-131.324C154.233,-121.025 146.253,-112.467 135.96,-105.655C125.661,-98.836 113.697,-94.125 100.067,-91.515L87.45,-96.736C97.892,-102.827 106.009,-109.931 111.813,-118.054C117.612,-126.171 121.746,-134.805 124.214,-143.941C126.675,-153.078 127.911,-161.997 127.911,-170.698C127.911,-186.939 123.996,-199.991 116.165,-209.855C108.333,-219.712 97.742,-224.79 84.404,-225.083C70.481,-225.083 59.748,-220.079 52.209,-210.073C44.663,-200.066 40.896,-188.244 40.896,-174.614C40.896,-165.328 42.637,-156.701 46.118,-148.727C49.599,-140.746 54.962,-133.425 62.216,-126.756C69.462,-120.08 78.599,-113.704 89.625,-107.613C98.904,-102.392 109.054,-97.096 120.08,-91.732C131.1,-86.362 141.542,-80.053 151.405,-72.807C161.263,-65.553 169.387,-56.777 175.77,-46.485C182.146,-36.186 185.341,-23.208 185.341,-7.546C185.341,9.572 181.134,24.432 172.724,37.049C164.309,49.667 152.419,59.456 137.048,66.417C121.671,73.378 103.548,76.859 82.664,76.859C68.741,76.859 55.614,75.044 43.29,71.42C30.958,67.797 20.299,62.433 11.312,55.323C2.318,48.219 -4.644,39.517 -9.571,29.218C-14.507,18.926 -16.683,7.104 -16.098,-6.24C-15.813,-15.227 -14.215,-23.351 -11.312,-30.605C-8.416,-37.851 -4.568,-44.452 0.218,-50.401C5.003,-56.342 10.585,-61.712 16.968,-66.498C23.345,-71.284 30.306,-75.56 37.852,-79.333C45.391,-83.099 53.079,-86.58 60.91,-89.775L73.527,-84.119C60.183,-76.865 48.796,-66.859 39.374,-54.099C29.945,-41.332 25.085,-25.092 24.799,-5.37C24.507,15.228 29.653,31.543 40.244,43.575C50.829,55.615 65.403,61.781 83.969,62.066C97.307,62.358 108.259,59.748 116.817,54.235C125.369,48.728 131.896,41.55 136.396,32.698C140.889,23.854 143.14,14.358 143.14,4.201C143.14,-5.656 141.324,-14.072 137.7,-21.033C134.07,-27.994 129.217,-34.01 123.126,-39.089C117.035,-44.16 110.142,-48.803 102.46,-53.011C94.771,-57.212 86.865,-61.345 78.748,-65.41C68.592,-70.917 58.803,-76.79 49.381,-83.031C39.952,-89.265 31.543,-96.369 24.146,-104.35C16.75,-112.324 10.877,-121.243 6.526,-131.107C2.175,-140.964 0,-151.698 0,-163.302" style="fill:rgb(222,186,135);fill-rule:nonzero;"/>
                    </g>
                </g>
            </g>
        </g>
    </g>
</svg>
