<?xml version="1.0" encoding="UTF-8" standalone="no"?>
<!DOCTYPE svg PUBLIC "-//W3C//DTD SVG 1.1//EN" "http://www.w3.org/Graphics/SVG/1.1/DTD/svg11.dtd">
<svg width="100%" height="100%" viewBox="0 0 3001 3300" version="1.1" xmlns="http://www.w3.org/2000/svg" xmlns:xlink="http://www.w3.org/1999/xlink" xml:space="preserve" xmlns:affinity="https://www.affinity.studio/" style="fill-rule:evenodd;clip-rule:evenodd;stroke-linejoin:round;stroke-miterlimit:2;">
    <g transform="matrix(1,0,0,1,-6390,-16502)">
        <g id="Contoured-Just-Circle" affinity:id="Contoured Just Circle" transform="matrix(5.472286,0,0,6.352922,6390.982589,16502)">
            <rect x="0" y="0" width="548.217" height="519.446" style="fill:none;"/>
            <g id="Circle-Final" affinity:id="Circle Final" transform="matrix(0.766666,0,0,0.660392,213.782231,54.890116)">
                <path d="M160.884,41.401C158.633,44.069 155.121,47.889 151.716,50.192C141.965,56.788 129.484,54.914 120.709,47.329C109.494,37.634 106.531,21.737 112.357,7.764C119.614,-9.644 136.862,-20.112 156.118,-19.952C175.931,-19.789 193.271,-9.351 204.643,6.669C211.915,16.913 215.893,28.405 219.143,40.591C219.868,43.307 220.983,45.324 223.365,46.843C254.265,66.55 280.533,92.376 298.822,123.944C298.843,123.981 298.864,124.017 298.884,124.054L303.866,133.013C303.9,133.073 303.933,133.135 303.965,133.196C315.149,154.763 321.019,176.889 320.953,201.587C321.001,203.588 321.131,213.359 319.2,218.323C318.346,220.52 316.647,222.254 314.463,223.271C312.135,224.355 309.302,224.413 307.75,224.055C305.792,223.604 303.355,222.903 300.84,219.157C300.654,218.879 300.487,218.589 300.342,218.288C300.342,218.288 288.339,193.5 283.89,185.474C271.495,163.116 255.734,143.627 238.801,124.627L217.382,104.734L194.446,86.919C189.238,82.873 187.286,76.408 187.797,69.716L189.54,46.881C189.525,46.468 189.507,46.055 189.483,45.642C189.44,45.854 189.395,46.067 189.349,46.28C185.645,63.224 173.887,76.541 157.411,82.829C138.616,90.002 117.795,86.891 100.196,75.83L100.196,75.83C90.525,69.751 82.462,63.224 72.21,58.734C65.938,55.989 57.651,53.999 50.9,55.658C40.854,58.126 32.008,62.325 22.644,66.823C-10.268,82.632 -39.365,104.431 -65.086,130.363C-65.13,130.407 -65.175,130.451 -65.221,130.495C-85.236,149.637 -102.072,170.566 -116.62,193.903C-118.927,197.606 -123.301,199.482 -127.571,198.574C-127.631,198.561 -127.692,198.548 -127.753,198.534L-127.785,198.526C-133.092,197.318 -136.597,192.15 -135.72,186.76C-133.159,171.017 -128.396,156.539 -121.172,142.161C-110.865,121.514 -97.126,103.974 -81.523,86.962C-63.577,67.399 -43.779,50.886 -21.194,36.813C7.597,18.873 39.483,8.484 73.234,5.637C81.589,4.931 87.692,7.819 91.494,15.744L102.095,37.84C108.23,48.074 117.333,55.86 128.852,58.837C139.216,61.515 150.503,59.181 157.249,51.112C159.942,47.892 161.056,44.35 160.884,41.401ZM227.823,379.638C271.176,416.812 246.971,489.139 189.148,500.26C163.43,506.456 134.617,499.039 111.219,488.207C106.027,485.966 102.357,484.717 96.027,483.271C31.975,468.64 -22.63,439.051 -68.027,392.678C-79.151,381.315 -76.927,369.102 -71.992,354.825C-66.68,339.457 -58.311,320.862 -78.755,296.673L-78.813,296.604C-90.212,282.769 -113.901,279.931 -125.897,293.89C-123.775,291.653 -121.121,289.842 -117.905,288.703C-110.127,285.948 -103.385,286.379 -97.828,288.672C-89.633,292.054 -83.803,299.761 -81.338,309.035C-77.45,323.659 -82.142,341.683 -96.654,349.696C-117.729,362.77 -147.431,352.982 -158.472,331.293C-172.58,304.611 -160.582,270.271 -135.268,254.767C-126.479,248.981 -115.823,246.701 -106.093,242.98C-106.013,242.949 -105.932,242.92 -105.851,242.892C-102.705,241.818 -101.465,239.376 -100.371,236.287C-69.151,144.491 31.699,79.962 127.649,106.651C170.659,116.584 207.879,149.287 225.882,188.486C244.203,228.377 242.802,274.803 208.456,311.103L208.448,311.111C188.039,332.613 156.929,346.843 127.078,339.304C114.711,336.181 101.667,330.812 92.294,321.886L92.293,321.886C71.671,302.243 57.303,268.337 72.966,241.472C72.995,241.421 73.024,241.372 73.055,241.322C75.176,237.88 77.941,234.699 81.569,232.913C86.766,230.354 93.665,231.197 97.541,235.497C99.551,237.727 100.516,240.371 100.809,243.253C101.01,245.242 100.67,247.407 100.897,249.265L100.898,249.265C101.384,253.235 101.741,257.106 102.828,260.98C106.422,273.79 115.575,283.468 128.334,287.452C128.551,287.52 128.765,287.598 128.974,287.686C141.954,293.143 157.604,289.848 168.822,281.585C168.877,281.544 168.933,281.504 168.989,281.465C187.351,268.738 192.931,247.887 189.384,228.113C185.755,207.882 172.693,188.615 153.387,179.719C153.267,179.664 153.148,179.605 153.031,179.543C127.925,166.233 97.257,167.289 69.963,173.281C41.672,180.411 18.02,201.589 4.313,226.91C4.294,226.945 4.275,226.981 4.255,227.016C-32.109,291.562 7.16,376.423 72.746,407.843C96.831,419.38 98.784,429.171 112.375,444.097C112.46,444.19 112.543,444.286 112.623,444.384C134.883,471.596 177.498,485.512 205.902,462.255C205.929,462.233 205.957,462.211 205.984,462.189C215.627,454.528 222.346,442.755 222.014,430.291C222.011,430.186 222.011,430.082 222.012,429.977C222.315,412.573 205.899,395.313 188.168,400.465L188.089,400.487C181.59,402.295 175.637,408.193 176.333,415.186C176.348,415.331 176.358,415.477 176.363,415.623C176.507,419.394 179.454,422.629 181.74,426.039C184.276,429.822 186.498,433.65 187.396,437.527C187.459,437.8 187.507,438.078 187.538,438.357C188.129,443.715 186.732,447.756 184.39,450.761C182.073,453.733 178.67,455.782 174.525,456.741C168.326,458.177 160.168,457.029 153.308,453.859C138.904,447.231 128.952,432.743 126.192,417.616C118.719,377.81 154.861,342.628 193.132,340.967C211.577,339.475 230.209,344.29 246.587,352.508C250.223,354.051 254.714,357.221 259.152,359.684C260.465,360.412 261.766,361.068 263.031,361.49C263.595,361.679 264.08,362.099 264.541,361.878C273.086,357.794 280.941,348.285 288.024,337.154C299.516,319.092 308.578,296.567 313.341,281.911L313.39,281.752L313.394,281.738C320.384,259.128 324.485,236.042 325.19,212.678C325.193,212.581 325.197,212.483 325.204,212.386C326.107,199.72 325.401,191.092 324.789,172.428C324.629,167.548 327.486,163.771 331.578,162.02C336.982,159.708 344.361,161.265 347.273,168.324C349.247,173.107 351.686,182.144 352.62,185.048C352.67,185.205 352.715,185.364 352.755,185.525C367.531,245.487 359.622,310.898 328.094,364.074C315.923,384.602 297.526,404.491 283.412,412.508C276.945,416.182 269.32,415.99 264.16,410.634C259.38,405.676 250.749,396.559 247.512,393.345C241.758,387.634 235.445,383.095 227.823,379.638ZM0.342,486.999C9.038,487.414 10.578,499.595 2.246,502.143L2.232,502.147C-11.843,506.42 -26.28,509.407 -40.87,511.251C-56.491,513.226 -72.529,514.239 -88.27,513.604C-98.521,513.19 -108.49,511.602 -118.349,508.851C-126.104,506.687 -133.718,503.99 -141.087,500.745C-149.797,496.912 -158.191,492.293 -165.915,486.718C-174.247,480.705 -181.803,473.542 -187.83,465.195C-194.382,456.12 -198.969,445.736 -201.161,434.755C-203.561,422.735 -202.511,412.453 -200.9,404.02C-200.876,403.897 -200.849,403.773 -200.819,403.651C-197.496,390.176 -192.283,378.048 -182.359,369.869C-181.188,368.874 -180.339,368.271 -179.992,368.035C-171.709,361.992 -161.595,358.434 -150.668,358.434C-122.762,358.434 -100.036,381.612 -100.036,410.328C-100.036,417.229 -101.459,425.223 -104.15,431.605C-106.192,436.452 -108.683,439.841 -107.408,445.381C-106.255,450.394 -103.003,454.725 -99.097,458.07L-99.096,458.07C-91.59,464.497 -81.546,468.794 -72.318,472.034L-72.318,472.034C-48.983,480.232 -24.503,485.828 0.337,486.998L0.342,486.999Z" style="fill:rgb(229,184,127);fill-rule:nonzero;"/>
            </g>
        </g>
    </g>
</svg>
