<?xml version="1.0" encoding="UTF-8" standalone="no"?>
<!DOCTYPE svg PUBLIC "-//W3C//DTD SVG 1.1//EN" "http://www.w3.org/Graphics/SVG/1.1/DTD/svg11.dtd">
<svg width="100%" height="100%" viewBox="0 0 4957 3914" version="1.1" xmlns="http://www.w3.org/2000/svg" xmlns:xlink="http://www.w3.org/1999/xlink" xml:space="preserve" xmlns:affinity="https://www.affinity.studio/" style="fill-rule:evenodd;clip-rule:evenodd;stroke-linejoin:round;stroke-miterlimit:2;">
    <g transform="matrix(1,0,0,1,-39472,-20085)">
        <g id="Prowess-Plus-8" affinity:id="Prowess Plus 8" transform="matrix(4.398482,0,0,4.166667,39472.111567,20085.888919)">
            <rect x="0" y="0" width="1126.87" height="939.043" style="fill:none;"/>
            <clipPath id="_clip1">
                <rect x="0" y="0" width="1126.87" height="939.043"/>
            </clipPath>
            <g clip-path="url(#_clip1)">
                <g id="_--8-Prowess" affinity:id="+ 8 Prowess" transform="matrix(0.947296,0,0,1,29.695038,0)">
                    <g id="Inline-Frame" affinity:id="Inline Frame" transform="matrix(1,0,0,1,107.9718,225.0764)">
                        <path d="M0,499.368L0,423.377C13.936,459.297 42.561,487.922 78.48,501.856L2.49,501.856C1.117,501.856 0,500.741 0,499.368M696.959,501.856L99.751,501.856C50.095,490.921 10.932,451.756 0,402.099L0,374.164C0,370.754 -2.764,367.989 -6.174,367.989C-9.584,367.989 -12.348,370.754 -12.348,374.164L-12.348,499.368C-12.348,507.549 -5.692,514.206 2.49,514.206L696.959,514.206C700.369,514.206 703.133,511.441 703.133,508.032C703.133,504.621 700.369,501.856 696.959,501.856M2.49,-2.49L78.48,-2.49C42.561,11.446 13.936,40.071 0,75.99L0,0C0,-1.373 1.117,-2.49 2.49,-2.49M-6.174,131.379C-2.764,131.379 0,128.614 0,125.205L0,97.269C10.932,47.612 50.095,8.446 99.751,-2.49L700.046,-2.49C703.456,-2.49 706.221,-5.254 706.221,-8.664C706.221,-12.073 703.456,-14.838 700.046,-14.838L2.49,-14.838C-5.692,-14.838 -12.348,-8.182 -12.348,0L-12.348,125.205C-12.348,128.614 -9.584,131.379 -6.174,131.379" style="fill:rgb(222,186,135);fill-rule:nonzero;"/>
                    </g>
                    <g id="_--Modifier" affinity:id="+ Modifier">
                        <g transform="matrix(1,0,0,1,158.4851,485.1238)">
                            <path d="M0,-20.728L-46.323,-20.728L-46.323,-67.051C-46.323,-72.772 -50.963,-77.416 -56.688,-77.416C-62.412,-77.416 -67.052,-72.772 -67.052,-67.051L-67.052,-20.728L-113.375,-20.728C-119.096,-20.728 -123.74,-16.088 -123.74,-10.364C-123.74,-4.639 -119.096,0.001 -113.375,0.001L-67.052,0.001L-67.052,46.324C-67.052,52.045 -62.412,56.688 -56.688,56.688C-50.963,56.688 -46.323,52.045 -46.323,46.324L-46.323,0.001L0,0.001C5.72,0.001 10.364,-4.639 10.364,-10.364C10.364,-16.088 5.72,-20.728 0,-20.728" style="fill:rgb(222,186,135);fill-rule:nonzero;"/>
                        </g>
                        <g transform="matrix(1,0,0,1,101.7976,565.8884)">
                            <path d="M0,-182.257C-50.247,-182.257 -91.129,-141.377 -91.129,-91.128C-91.129,-40.88 -50.247,0.001 0,0.001C50.247,0.001 91.129,-40.88 91.129,-91.128C91.129,-141.377 50.247,-182.257 0,-182.257M0,10.67C-56.132,10.67 -101.798,-34.996 -101.798,-91.128C-101.798,-147.26 -56.132,-192.927 0,-192.927C56.132,-192.927 101.798,-147.26 101.798,-91.128C101.798,-34.996 56.132,10.67 0,10.67" style="fill:rgb(222,186,135);fill-rule:nonzero;"/>
                        </g>
                    </g>
                    <g id="_8-" affinity:id="8 " transform="matrix(1,0,0,1,306.6115,556.2094)">
                        <path d="M0,-163.302C0,-178.38 3.48,-191.582 10.441,-202.894C17.402,-214.206 27.192,-223.125 39.81,-229.651C52.426,-236.177 67.287,-239.583 84.404,-239.875C100.353,-240.161 114.642,-237.333 127.259,-231.391C139.876,-225.443 149.883,-216.959 157.279,-205.939C164.676,-194.913 168.373,-181.718 168.373,-166.348C168.373,-153.295 165.545,-141.616 159.89,-131.324C154.233,-121.025 146.253,-112.466 135.961,-105.655C125.661,-98.836 113.697,-94.125 100.066,-91.515L87.449,-96.736C97.892,-102.827 106.008,-109.931 111.813,-118.054C117.612,-126.171 121.746,-134.805 124.214,-143.941C126.674,-153.078 127.912,-161.997 127.912,-170.698C127.912,-186.939 123.996,-199.991 116.164,-209.855C108.333,-219.712 97.742,-224.79 84.404,-225.083C70.481,-225.083 59.748,-220.079 52.209,-210.072C44.663,-200.066 40.896,-188.244 40.896,-174.614C40.896,-165.328 42.637,-156.701 46.117,-148.727C49.599,-140.746 54.962,-133.425 62.216,-126.756C69.462,-120.08 78.599,-113.704 89.625,-107.613C98.904,-102.392 109.054,-97.096 120.08,-91.732C131.1,-86.362 141.542,-80.053 151.405,-72.807C161.263,-65.553 169.387,-56.777 175.77,-46.485C182.146,-36.186 185.342,-23.208 185.342,-7.545C185.342,9.572 181.133,24.432 172.725,37.049C164.309,49.667 152.418,59.456 137.048,66.417C121.671,73.378 103.548,76.859 82.664,76.859C68.741,76.859 55.614,75.044 43.29,71.42C30.958,67.797 20.299,62.433 11.312,55.323C2.318,48.219 -4.644,39.517 -9.572,29.218C-14.507,18.926 -16.683,7.104 -16.098,-6.24C-15.813,-15.227 -14.215,-23.351 -11.313,-30.604C-8.416,-37.851 -4.568,-44.452 0.218,-50.4C5.003,-56.342 10.584,-61.712 16.968,-66.498C23.345,-71.284 30.306,-75.56 37.852,-79.333C45.391,-83.099 53.079,-86.58 60.91,-89.774L73.527,-84.119C60.183,-76.865 48.796,-66.858 39.374,-54.099C29.945,-41.332 25.085,-25.091 24.799,-5.37C24.507,15.228 29.652,31.543 40.244,43.576C50.829,55.615 65.403,61.781 83.969,62.066C97.307,62.358 108.259,59.748 116.817,54.235C125.369,48.729 131.896,41.55 136.396,32.699C140.889,23.854 143.139,14.358 143.139,4.201C143.139,-5.656 141.324,-14.072 137.701,-21.033C134.07,-27.994 129.217,-34.01 123.126,-39.088C117.035,-44.16 110.142,-48.803 102.46,-53.011C94.771,-57.212 86.865,-61.345 78.748,-65.41C68.592,-70.917 58.803,-76.79 49.381,-83.031C39.952,-89.265 31.543,-96.369 24.146,-104.35C16.75,-112.324 10.877,-121.243 6.526,-131.106C2.176,-140.964 0,-151.698 0,-163.302" style="fill:rgb(222,186,135);fill-rule:nonzero;"/>
                    </g>
                    <g id="Prowess-Icon" affinity:id="Prowess Icon" transform="matrix(1,0,0,1,1040.8885,377.3418)">
                        <path d="M0,184.359L0,185.962L-0.032,185.962C-14.943,215.304 -44.35,233.807 -77.123,234.737C-78.053,267.512 -96.556,296.918 -125.931,311.893L-102.585,311.893C-46.018,311.893 0.032,265.842 0.032,209.276L0.032,184.359L0,184.359ZM-349.54,234.737C-382.313,233.807 -411.687,215.304 -426.695,185.962L-426.727,185.962L-426.695,209.276C-426.695,265.842 -380.645,311.893 -324.078,311.893L-300.765,311.893C-330.106,296.918 -348.61,267.512 -349.54,234.737M-324.078,-114.835C-380.645,-114.835 -426.695,-68.784 -426.695,-12.218L-426.695,11.096C-411.72,-18.246 -382.313,-36.75 -349.54,-37.68C-348.61,-70.452 -330.106,-99.827 -300.765,-114.835L-324.078,-114.835ZM-102.585,-114.835L-125.898,-114.835C-96.556,-99.86 -78.053,-70.452 -77.123,-37.68C-44.35,-36.75 -14.943,-18.246 0.032,11.128L0.032,-12.218C0.032,-68.784 -46.018,-114.835 -102.585,-114.835M-508.1,90.53C-514.158,93.126 -514.158,101.711 -508.1,104.307C-479.912,116.39 -448.293,132.482 -415.385,154.052C-390.239,170.534 -368.572,187.44 -350.17,203.468C-344.346,192.367 -332.272,172.94 -309.974,156.33C-291.287,142.409 -273.046,136.147 -261.559,133.178C-260.42,127.916 -259.414,122.023 -258.732,115.572C-258.036,108.986 -257.791,102.896 -257.815,97.418C-257.791,91.941 -258.036,85.851 -258.732,79.265C-259.414,72.814 -260.42,66.921 -261.559,61.659C-273.046,58.69 -291.287,52.428 -309.974,38.507C-332.272,21.897 -344.346,2.47 -350.17,-8.631C-368.572,7.397 -390.239,24.303 -415.385,40.785C-448.293,62.355 -479.912,78.447 -508.1,90.53M-11.278,40.785C-36.425,24.303 -58.092,7.397 -76.493,-8.631C-82.317,2.47 -94.391,21.897 -116.69,38.507C-135.376,52.428 -153.617,58.69 -165.105,61.659C-166.243,66.921 -167.249,72.814 -167.931,79.265C-168.628,85.851 -168.872,91.941 -168.848,97.418C-168.872,102.896 -168.628,108.986 -167.931,115.572C-167.249,122.023 -166.243,127.916 -165.105,133.178C-153.617,136.147 -135.376,142.409 -116.69,156.33C-94.391,172.94 -82.317,192.367 -76.493,203.468C-58.092,187.44 -36.425,170.534 -11.278,154.052C21.63,132.482 53.249,116.39 81.437,104.307C87.495,101.711 87.495,93.126 81.437,90.53C53.249,78.447 21.63,62.355 -11.278,40.785M-99.41,227.265C-137.924,254.94 -162.584,289.893 -178.971,339.919C-194.812,388.374 -203.983,453.632 -209.595,558.142C-209.756,561.54 -212.738,561.701 -213.348,561.701C-213.925,561.701 -216.907,561.54 -217.067,558.142C-222.679,453.632 -231.851,388.374 -247.724,339.919C-264.079,289.926 -288.739,254.94 -327.253,227.265C-273.795,201.098 -238.809,146.582 -237.623,86.745C-238.906,27.129 -273.891,-27.289 -327.253,-53.393C-287.809,-81.516 -263.887,-113.905 -247.724,-160.756C-231.562,-207.639 -222.679,-269.37 -217.067,-373.814C-216.907,-377.181 -213.925,-377.342 -213.348,-377.342C-212.738,-377.342 -209.756,-377.181 -209.595,-373.814C-203.983,-269.37 -195.101,-207.639 -178.939,-160.756C-162.776,-113.905 -138.854,-81.516 -99.41,-53.393C-152.867,-27.225 -187.854,27.258 -189.04,87.13C-187.757,146.743 -152.772,201.13 -99.41,227.265" style="fill:rgb(222,186,135);fill-rule:nonzero;"/>
                    </g>
                </g>
            </g>
        </g>
    </g>
</svg>
