<?xml version="1.0" encoding="UTF-8" standalone="no"?>
<!DOCTYPE svg PUBLIC "-//W3C//DTD SVG 1.1//EN" "http://www.w3.org/Graphics/SVG/1.1/DTD/svg11.dtd">
<svg width="100%" height="100%" viewBox="0 0 4751 3001" version="1.1" xmlns="http://www.w3.org/2000/svg" xmlns:xlink="http://www.w3.org/1999/xlink" xml:space="preserve" xmlns:affinity="https://www.affinity.studio/" style="fill-rule:evenodd;clip-rule:evenodd;stroke-linejoin:round;stroke-miterlimit:2;">
    <g transform="matrix(1,0,0,1,-11369,-20085)">
        <g id="Prowess-Plus-3" affinity:id="Prowess Plus 3" transform="matrix(4.215536,0,0,3.194742,11369.604001,20085.888919)">
            <rect x="0" y="0" width="1126.87" height="939.043" style="fill:none;"/>
            <g id="_--3-Prowess" affinity:id="+ 3 Prowess" transform="matrix(0.988407,0,0,1.304226,171.717292,-174.142238)">
                <g id="_--Modifier" affinity:id="+ Modifier" transform="matrix(1.650327,0,0,1.650327,-132.40374,-308.749238)">
                    <g transform="matrix(1,0,0,1,158.4851,485.1238)">
                        <path d="M0,-20.728L-46.323,-20.728L-46.323,-67.051C-46.323,-72.772 -50.963,-77.416 -56.688,-77.416C-62.412,-77.416 -67.052,-72.772 -67.052,-67.051L-67.052,-20.728L-113.375,-20.728C-119.096,-20.728 -123.74,-16.088 -123.74,-10.364C-123.74,-4.639 -119.096,0.001 -113.375,0.001L-67.052,0.001L-67.052,46.324C-67.052,52.045 -62.412,56.688 -56.688,56.688C-50.963,56.688 -46.323,52.045 -46.323,46.324L-46.323,0.001L0,0.001C5.72,0.001 10.364,-4.639 10.364,-10.364C10.364,-16.088 5.72,-20.728 0,-20.728" style="fill:rgb(222,186,135);fill-rule:nonzero;"/>
                    </g>
                    <g transform="matrix(1,0,0,1,101.7976,565.8884)">
                        <path d="M0,-182.257C-50.247,-182.257 -91.129,-141.377 -91.129,-91.128C-91.129,-40.88 -50.247,0.001 0,0.001C50.247,0.001 91.129,-40.88 91.129,-91.128C91.129,-141.377 50.247,-182.257 0,-182.257M0,10.67C-56.132,10.67 -101.798,-34.996 -101.798,-91.128C-101.798,-147.26 -56.132,-192.927 0,-192.927C56.132,-192.927 101.798,-147.26 101.798,-91.128C101.798,-34.996 56.132,10.67 0,10.67" style="fill:rgb(222,186,135);fill-rule:nonzero;"/>
                    </g>
                </g>
                <g id="_3" affinity:id="3" transform="matrix(1,0,0,1,367.5275,645.7595)">
                    <path d="M0,-328.555C18.559,-329.133 34.588,-326.597 48.075,-320.941C61.563,-315.285 72.004,-307.379 79.4,-297.23C86.797,-287.074 90.495,-275.184 90.495,-261.554C90.495,-250.82 88.17,-240.738 83.534,-231.316C78.891,-221.887 72.8,-213.913 65.261,-207.387C57.715,-200.861 49.598,-196.218 40.896,-193.465C32.195,-190.704 23.929,-190.344 16.098,-192.377C25.377,-192.377 34.874,-190.779 44.595,-187.591C54.309,-184.396 63.371,-179.467 71.787,-172.799C80.196,-166.123 86.939,-157.639 92.018,-147.347C97.089,-137.048 99.632,-125.083 99.632,-111.453C99.632,-96.368 96.437,-82.371 90.06,-69.469C83.677,-56.559 74.9,-45.247 63.738,-35.533C52.569,-25.812 39.517,-17.912 24.582,-11.821C9.639,-5.73 -6.384,-2.032 -23.494,-0.727C-40.612,0.578 -58.015,-0.802 -75.703,-4.86L-74.833,-9.211C-57.43,-8.925 -40.972,-11.243 -25.452,-16.172C-9.939,-21.1 3.841,-28.137 15.88,-37.273C27.912,-46.409 37.416,-57.504 44.377,-70.556C51.338,-83.608 54.819,-97.966 54.819,-113.628C54.819,-130.447 50.903,-144.152 43.072,-154.743C35.241,-165.327 24.724,-173.159 11.529,-178.237C-1.673,-183.308 -16.391,-185.851 -32.631,-185.851L-31.761,-190.201C-18.708,-190.201 -6.091,-193.172 6.091,-199.12C18.273,-205.062 28.205,-213.546 35.894,-224.572C43.575,-235.592 46.988,-248.936 46.118,-264.599C45.533,-273.586 43.215,-281.852 39.156,-289.398C35.091,-296.937 29.218,-302.953 21.536,-307.454C13.847,-311.947 4.201,-314.048 -7.396,-313.763C-25.384,-313.47 -39.014,-307.597 -48.293,-296.142C-57.58,-284.68 -61.781,-269.385 -60.911,-250.242L-65.261,-250.242L-76.138,-297.665C-68.307,-305.782 -58.3,-312.818 -46.118,-318.766C-33.936,-324.707 -18.565,-327.97 0,-328.555" style="fill:rgb(222,186,135);fill-rule:nonzero;"/>
                </g>
                <g id="Prowess" transform="matrix(0.64,0,0,0.64,856.33691,410.526407)">
                    <path d="M0,184.359L0,185.962L-0.032,185.962C-14.943,215.304 -44.35,233.807 -77.123,234.737C-78.053,267.512 -96.556,296.918 -125.931,311.893L-102.585,311.893C-46.018,311.893 0.032,265.842 0.032,209.276L0.032,184.359L0,184.359ZM-349.54,234.737C-382.313,233.807 -411.687,215.304 -426.695,185.962L-426.727,185.962L-426.695,209.276C-426.695,265.842 -380.645,311.893 -324.078,311.893L-300.765,311.893C-330.106,296.918 -348.61,267.512 -349.54,234.737M-324.078,-114.835C-380.645,-114.835 -426.695,-68.784 -426.695,-12.218L-426.695,11.096C-411.72,-18.246 -382.313,-36.75 -349.54,-37.68C-348.61,-70.452 -330.106,-99.827 -300.765,-114.835L-324.078,-114.835ZM-102.585,-114.835L-125.898,-114.835C-96.556,-99.86 -78.053,-70.452 -77.123,-37.68C-44.35,-36.75 -14.943,-18.246 0.032,11.128L0.032,-12.218C0.032,-68.784 -46.018,-114.835 -102.585,-114.835M-508.1,90.53C-514.158,93.126 -514.158,101.711 -508.1,104.307C-479.912,116.39 -448.293,132.482 -415.385,154.052C-390.239,170.534 -368.572,187.44 -350.17,203.468C-344.346,192.367 -332.272,172.94 -309.974,156.33C-291.287,142.409 -273.046,136.147 -261.559,133.178C-260.42,127.916 -259.414,122.023 -258.732,115.572C-258.036,108.986 -257.791,102.896 -257.815,97.418C-257.791,91.941 -258.036,85.851 -258.732,79.265C-259.414,72.814 -260.42,66.921 -261.559,61.659C-273.046,58.69 -291.287,52.428 -309.974,38.507C-332.272,21.897 -344.346,2.47 -350.17,-8.631C-368.572,7.397 -390.239,24.303 -415.385,40.785C-448.293,62.355 -479.912,78.447 -508.1,90.53M-11.278,40.785C-36.425,24.303 -58.092,7.397 -76.493,-8.631C-82.317,2.47 -94.391,21.897 -116.69,38.507C-135.376,52.428 -153.617,58.69 -165.105,61.659C-166.243,66.921 -167.249,72.814 -167.931,79.265C-168.628,85.851 -168.872,91.941 -168.848,97.418C-168.872,102.896 -168.628,108.986 -167.931,115.572C-167.249,122.023 -166.243,127.916 -165.105,133.178C-153.617,136.147 -135.376,142.409 -116.69,156.33C-94.391,172.94 -82.317,192.367 -76.493,203.468C-58.092,187.44 -36.425,170.534 -11.278,154.052C21.63,132.482 53.249,116.39 81.437,104.307C87.495,101.711 87.495,93.126 81.437,90.53C53.249,78.447 21.63,62.355 -11.278,40.785M-99.41,227.265C-137.924,254.94 -162.584,289.893 -178.971,339.919C-194.812,388.374 -203.983,453.632 -209.595,558.142C-209.756,561.54 -212.738,561.701 -213.348,561.701C-213.925,561.701 -216.907,561.54 -217.067,558.142C-222.679,453.632 -231.851,388.374 -247.724,339.919C-264.079,289.926 -288.739,254.94 -327.253,227.265C-273.795,201.098 -238.809,146.582 -237.623,86.745C-238.906,27.129 -273.891,-27.289 -327.253,-53.393C-287.809,-81.516 -263.887,-113.905 -247.724,-160.756C-231.562,-207.639 -222.679,-269.37 -217.067,-373.814C-216.907,-377.181 -213.925,-377.342 -213.348,-377.342C-212.738,-377.342 -209.756,-377.181 -209.595,-373.814C-203.983,-269.37 -195.101,-207.639 -178.939,-160.756C-162.776,-113.905 -138.854,-81.516 -99.41,-53.393C-152.867,-27.225 -187.854,27.258 -189.04,87.13C-187.757,146.743 -152.772,201.13 -99.41,227.265" style="fill:rgb(222,186,135);fill-rule:nonzero;"/>
                </g>
            </g>
        </g>
    </g>
</svg>
